HIERARCHY
ROOT reference
{
  OFFSET 0 0 0
  CHANNELS 6 Xposition Yposition Zposition Zrotation Xrotation Yrotation
  JOINT Hips
  {
    OFFSET 349.773 89.4622 219.413
    CHANNELS 3 Zrotation Xrotation Yrotation
    JOINT RightUpLeg
    {
      OFFSET -9.25229 -1.56476 -0.00486621
      CHANNELS 3 Zrotation Xrotation Yrotation
      JOINT RightLeg
      {
        OFFSET 0.0546168 -41.8841 0.068862
        CHANNELS 3 Zrotation Xrotation Yrotation
        JOINT RightFoot
        {
          OFFSET -1.63893 -40.8901 3.53979
          CHANNELS 3 Zrotation Xrotation Yrotation
          End Site
          {
            OFFSET 0 -7.69 17.5
          }
        }
      }
    }
    JOINT LeftUpLeg
    {
      OFFSET 9.30241 -1.63853 -0.0284428
      CHANNELS 3 Zrotation Xrotation Yrotation
      JOINT LeftLeg
      {
        OFFSET 0.0539686 -41.842 -0.0517406
        CHANNELS 3 Zrotation Xrotation Yrotation
        JOINT LeftFoot
        {
          OFFSET 1.12518 -42.5382 -2.5849
          CHANNELS 3 Zrotation Xrotation Yrotation
          End Site
          {
            OFFSET 0 -7.69 17.5
          }
        }
      }
    }
    JOINT Spine
    {
      OFFSET 0.0144198 14.3187 0.0981135
      CHANNELS 3 Zrotation Xrotation Yrotation
      JOINT Spine1
      {
        OFFSET 0.0112165 9.7169 0.0514987
        CHANNELS 3 Zrotation Xrotation Yrotation
        JOINT Spine2
        {
          OFFSET 0.0255827 10.1205 -0.00638435
          CHANNELS 3 Zrotation Xrotation Yrotation
          JOINT Spine3
          {
            OFFSET -0.00190646 9.72552 0.024249
            CHANNELS 3 Zrotation Xrotation Yrotation
            JOINT Neck
            {
              OFFSET -0.136438 10.3681 0.0553958
              CHANNELS 3 Zrotation Xrotation Yrotation
              JOINT Head
              {
                OFFSET 0.0264476 9.5071 0.170402
                CHANNELS 3 Zrotation Xrotation Yrotation
                End Site
                {
                  OFFSET 0 15.95 0
                }
              }
            }
            JOINT RightShoulder
            {
              OFFSET -3.1747 6.92483 0.00547946
              CHANNELS 3 Zrotation Xrotation Yrotation
              JOINT RightArm
              {
                OFFSET -12.7755 -0.0136287 0.0362428
                CHANNELS 3 Zrotation Xrotation Yrotation
                JOINT RightForeArm
                {
                  OFFSET -26.5642 -0.108975 -0.0233747
                  CHANNELS 3 Zrotation Xrotation Yrotation
                  JOINT RightHand
                  {
                    OFFSET -25.905 -0.185223 0.00356295
                    CHANNELS 3 Zrotation Xrotation Yrotation
                    JOINT RightHandThumb1
                    {
                      OFFSET -2.48905 0.190105 3.12053
                      CHANNELS 3 Zrotation Xrotation Yrotation
                      JOINT RightHandThumb2
                      {
                        OFFSET -3.68274 0 0
                        CHANNELS 3 Zrotation Xrotation Yrotation
                        JOINT RightHandThumb3
                        {
                          OFFSET -2.55832 0 0
                          CHANNELS 3 Zrotation Xrotation Yrotation
                          End Site
                          {
                            OFFSET -2.194 0 0
                          }
                        }
                      }
                    }
                    JOINT RightInHandIndex
                    {
                      OFFSET -3.22368 0.508421 1.97842
                      CHANNELS 3 Zrotation Xrotation Yrotation
                      JOINT RightHandIndex1
                      {
                        OFFSET -5.21684 -0.091368 0.999158
                        CHANNELS 3 Zrotation Xrotation Yrotation
                        JOINT RightHandIndex2
                        {
                          OFFSET -3.61937 0 0
                          CHANNELS 3 Zrotation Xrotation Yrotation
                          JOINT RightHandIndex3
                          {
                            OFFSET -2.0521 0 0
                            CHANNELS 3 Zrotation Xrotation Yrotation
                            End Site
                            {
                              OFFSET -1.805 0 0
                            }
                          }
                        }
                      }
                    }
                    JOINT RightInHandMiddle
                    {
                      OFFSET -3.38211 0.517263 0.756737
                      CHANNELS 3 Zrotation Xrotation Yrotation
                      JOINT RightHandMiddle1
                      {
                        OFFSET -5.17411 -0.084 0.313895
                        CHANNELS 3 Zrotation Xrotation Yrotation
                        JOINT RightHandMiddle2
                        {
                          OFFSET -3.94947 0 0
                          CHANNELS 3 Zrotation Xrotation Yrotation
                          JOINT RightHandMiddle3
                          {
                            OFFSET -2.47579 0 0
                            CHANNELS 3 Zrotation Xrotation Yrotation
                            End Site
                            {
                              OFFSET -1.975 0 0
                            }
                          }
                        }
                      }
                    }
                    JOINT RightInHandRing
                    {
                      OFFSET -3.36516 0.537895 -0.128947
                      CHANNELS 3 Zrotation Xrotation Yrotation
                      JOINT RightHandRing1
                      {
                        OFFSET -4.63474 -0.022105 -0.478947
                        CHANNELS 3 Zrotation Xrotation Yrotation
                        JOINT RightHandRing2
                        {
                          OFFSET -3.44238 0 0
                          CHANNELS 3 Zrotation Xrotation Yrotation
                          JOINT RightHandRing3
                          {
                            OFFSET -2.3881 0 0
                            CHANNELS 3 Zrotation Xrotation Yrotation
                            End Site
                            {
                              OFFSET -1.857 0 0
                            }
                          }
                        }
                      }
                    }
                    JOINT RightInHandPinky
                    {
                      OFFSET -3.16105 0.469368 -1.20179
                      CHANNELS 3 Zrotation Xrotation Yrotation
                      JOINT RightHandPinky1
                      {
                        OFFSET -4.14105 -0.022105 -1.09053
                        CHANNELS 3 Zrotation Xrotation Yrotation
                        JOINT RightHandPinky2
                        {
                          OFFSET -2.75653 0 0
                          CHANNELS 3 Zrotation Xrotation Yrotation
                          JOINT RightHandPinky3
                          {
                            OFFSET -1.74189 0 0
                            CHANNELS 3 Zrotation Xrotation Yrotation
                            End Site
                            {
                              OFFSET -1.645 0 0
                            }
                          }
                        }
                      }
                    }
                  }
                }
              }
            }
            JOINT LeftShoulder
            {
              OFFSET 3.23079 6.93624 -0.032633
              CHANNELS 3 Zrotation Xrotation Yrotation
              JOINT LeftArm
              {
                OFFSET 12.8235 -0.00564763 -0.0637926
                CHANNELS 3 Zrotation Xrotation Yrotation
                JOINT LeftForeArm
                {
                  OFFSET 26.4641 -0.00020372 -0.0407631
                  CHANNELS 3 Zrotation Xrotation Yrotation
                  JOINT LeftHand
                  {
                    OFFSET 25.9912 -0.0207868 -0.0178714
                    CHANNELS 3 Zrotation Xrotation Yrotation
                    JOINT LeftHandThumb1
                    {
                      OFFSET 2.48905 0.190105 3.12053
                      CHANNELS 3 Zrotation Xrotation Yrotation
                      JOINT LeftHandThumb2
                      {
                        OFFSET 3.68274 0 0
                        CHANNELS 3 Zrotation Xrotation Yrotation
                        JOINT LeftHandThumb3
                        {
                          OFFSET 2.55832 0 0
                          CHANNELS 3 Zrotation Xrotation Yrotation
                          End Site
                          {
                            OFFSET 2.194 0 0
                          }
                        }
                      }
                    }
                    JOINT LeftInHandIndex
                    {
                      OFFSET 3.22368 0.508421 1.97842
                      CHANNELS 3 Zrotation Xrotation Yrotation
                      JOINT LeftHandIndex1
                      {
                        OFFSET 5.21684 -0.091368 0.999158
                        CHANNELS 3 Zrotation Xrotation Yrotation
                        JOINT LeftHandIndex2
                        {
                          OFFSET 3.61937 0 0
                          CHANNELS 3 Zrotation Xrotation Yrotation
                          JOINT LeftHandIndex3
                          {
                            OFFSET 2.0521 0 0
                            CHANNELS 3 Zrotation Xrotation Yrotation
                            End Site
                            {
                              OFFSET 1.805 0 0
                            }
                          }
                        }
                      }
                    }
                    JOINT LeftInHandMiddle
                    {
                      OFFSET 3.38211 0.517263 0.756737
                      CHANNELS 3 Zrotation Xrotation Yrotation
                      JOINT LeftHandMiddle1
                      {
                        OFFSET 5.17411 -0.084 0.313895
                        CHANNELS 3 Zrotation Xrotation Yrotation
                        JOINT LeftHandMiddle2
                        {
                          OFFSET 3.94947 0 0
                          CHANNELS 3 Zrotation Xrotation Yrotation
                          JOINT LeftHandMiddle3
                          {
                            OFFSET 2.47579 0 0
                            CHANNELS 3 Zrotation Xrotation Yrotation
                            End Site
                            {
                              OFFSET 1.975 0 0
                            }
                          }
                        }
                      }
                    }
                    JOINT LeftInHandRing
                    {
                      OFFSET 3.36516 0.537895 -0.128947
                      CHANNELS 3 Zrotation Xrotation Yrotation
                      JOINT LeftHandRing1
                      {
                        OFFSET 4.63474 -0.022105 -0.478947
                        CHANNELS 3 Zrotation Xrotation Yrotation
                        JOINT LeftHandRing2
                        {
                          OFFSET 3.44238 0 0
                          CHANNELS 3 Zrotation Xrotation Yrotation
                          JOINT LeftHandRing3
                          {
                            OFFSET 2.3881 0 0
                            CHANNELS 3 Zrotation Xrotation Yrotation
                            End Site
                            {
                              OFFSET 1.857 0 0
                            }
                          }
                        }
                      }
                    }
                    JOINT LeftInHandPinky
                    {
                      OFFSET 3.16105 0.469368 -1.20179
                      CHANNELS 3 Zrotation Xrotation Yrotation
                      JOINT LeftHandPinky1
                      {
                        OFFSET 4.14105 -0.022105 -1.09053
                        CHANNELS 3 Zrotation Xrotation Yrotation
                        JOINT LeftHandPinky2
                        {
                          OFFSET 2.75653 0 0
                          CHANNELS 3 Zrotation Xrotation Yrotation
                          JOINT LeftHandPinky3
                          {
                            OFFSET 1.74189 0 0
                            CHANNELS 3 Zrotation Xrotation Yrotation
                            End Site
                            {
                              OFFSET 1.645 0 0
                            }
                          }
                        }
                      }
                    }
                  }
                }
              }
            }
          }
        }
      }
    }
  }
}
MOTION
Frames: 2
Frame Time: 0.00833333
3.150000000000000000e+03 0.000000000000000000e+00 0.000000000000000000e+00 0.000000000000000000e+00 0.000000000000000000e+00 0.000000000000000000e+00 2.386840000000000117e+01 6.320270000000000721e+00 -1.115610000000000070e+02 2.554479999999999862e+01 -4.619010000000000815e+01 2.338389999999999702e+01 -9.387809999999999988e+00 1.350960000000000427e+01 -2.555220000000000269e+00 1.115850000000000009e+01 1.331960000000000122e+01 3.465339999999999776e+01 3.418020000000000636e+01 -2.636429999999999296e+01 2.047119999999999962e+01 -1.935370000000000346e+01 4.032840000000000202e+01 2.649909999999999854e+01 -6.830029999999999824e+00 -2.439120000000000488e+01 -6.219249999999997058e+00 -5.985540000000000305e+00 2.081049999999998512e+00 -1.463960000000000150e+01 -1.549300000000000122e+00 1.088529999999998665e-01 -3.732739999999999725e+00 -2.556489999999999707e+00 -2.662720000000007303e-03 -6.068369999999998932e+00 -6.873600000000000820e-01 -4.704020000000000423e-01 2.763029999999999653e+00 -1.060060000000000224e+00 -6.072079999999999700e+00 4.381770000000000209e+01 -1.103399999999999892e+01 7.455869999999999997e+00 2.650999999999999801e+01 8.903879999999997352e+00 3.893399999999999750e+00 -1.740740000000000620e+00 4.794990000000000663e+01 -5.171129999999999427e+01 3.086999999999999744e+00 5.128650000000000375e+01 1.258580000000000609e+01 1.184279999999999973e+02 5.424129999999999896e+00 -1.877349999999999852e+01 1.044059999999999988e+01 2.818400000000000105e+01 1.072940000000000005e+01 1.915919999999999845e+01 3.722789999999999895e-15 -6.361109999999999741e-15 -1.000000000000000000e+01 1.614810000000000694e-15 0.000000000000000000e+00 -1.000000000000000000e+01 -2.385419999999998044e-15 3.180549999999999982e-15 0.000000000000000000e+00 1.998179999999999978e+01 8.718970000000000331e-01 2.396399999999999864e+00 2.400000000000000000e+01 0.000000000000000000e+00 0.000000000000000000e+00 2.000000000000000000e+01 -6.361109999999999741e-15 9.541659999999997356e-15 -2.385419999999998044e-15 3.180549999999999982e-15 0.000000000000000000e+00 2.000000000000000000e+01 -3.180549999999999982e-15 -4.770830000000000256e-15 2.400000000000000000e+01 -3.180549999999999982e-15 1.272220000000000151e-14 2.000000000000000000e+01 3.180549999999999982e-15 3.180550000000000771e-15 -2.385419999999998044e-15 3.180549999999999982e-15 0.000000000000000000e+00 1.997479999999999833e+01 -1.025649999999999951e+00 -2.819380000000000219e+00 2.400000000000000000e+01 -6.361110000000000530e-15 7.951389999999999226e-15 2.000000000000000000e+01 6.361109999999999741e-15 -6.361109999999999741e-15 -2.385419999999998044e-15 3.180549999999999982e-15 0.000000000000000000e+00 1.978150000000000119e+01 -3.009479999999999933e+00 -8.305149999999999366e+00 2.400000000000000000e+01 -3.180549999999999982e-15 -3.180550000000000771e-15 2.000000000000000000e+01 6.361109999999999741e-15 -6.361109999999998952e-15 4.649859999999998550e+00 -1.916510000000000247e+01 -4.913580000000001036e+01 -9.227259999999999351e+00 3.531790000000000873e+01 -1.148549999999999898e+02 3.412160000000000082e+01 -5.070740000000000691e+00 -2.694750000000000512e+01 -3.251400000000000290e+01 -1.487310000000000088e+01 -7.891249999999999432e+00 -2.818400000000000105e+01 1.072940000000000005e+01 -1.915919999999999845e+01 -8.791980000000001315e-15 6.361110000000001319e-15 1.000000000000000000e+01 -6.284600000000003553e-16 1.272220000000000151e-14 1.000000000000000000e+01 -7.951389999999999226e-16 -6.361109999999998952e-15 -3.180549999999999587e-15 -1.998179999999999978e+01 8.718970000000000331e-01 -2.396399999999999864e+00 -2.400000000000000000e+01 9.541660000000000512e-15 9.541660000000000512e-15 -2.000000000000000000e+01 3.180549999999999982e-15 -3.578119999999999853e-15 -7.951389999999999226e-16 -6.361109999999998952e-15 -3.180549999999999587e-15 -2.000000000000000000e+01 3.180549999999999982e-15 6.361110000000001319e-15 -2.400000000000000000e+01 -3.180549999999999982e-15 1.908330000000000147e-14 -2.000000000000000000e+01 3.180549999999999193e-15 -1.646190000000000033e-15 -7.951389999999999226e-16 -6.361109999999998952e-15 -3.180549999999999587e-15 -1.997479999999999833e+01 -1.025649999999999951e+00 2.819380000000000219e+00 -2.400000000000000000e+01 -9.541660000000000512e-15 -1.590280000000001063e-15 -2.000000000000000000e+01 0.000000000000000000e+00 8.249560000000001466e-15 -7.951389999999999226e-16 -6.361109999999998952e-15 -3.180549999999999587e-15 -1.978150000000000119e+01 -3.009479999999999933e+00 8.305149999999999366e+00 -2.400000000000000000e+01 -3.180549999999999193e-15 2.544440000000000301e-14 -2.000000000000000000e+01 -9.541660000000002090e-15 2.902259999999999793e-14
3.150000000000000000e+03 0.000000000000000000e+00 0.000000000000000000e+00 0.000000000000000000e+00 0.000000000000000000e+00 0.000000000000000000e+00 2.387610000000000099e+01 6.511230000000001183e+00 -1.116359999999999957e+02 2.579840000000000089e+01 -4.611540000000000106e+01 2.340090000000000003e+01 -9.461119999999997532e+00 1.349680000000000035e+01 -2.527530000000000499e+00 1.119519999999999804e+01 1.335099999999999909e+01 3.469579999999999842e+01 3.437199999999999989e+01 -2.626269999999999527e+01 2.042790000000000106e+01 -1.942530000000000001e+01 4.030930000000000746e+01 2.656699999999999662e+01 -6.798920000000000741e+00 -2.441839999999999833e+01 -6.195020000000001303e+00 -5.981029999999999625e+00 2.035980000000000345e+00 -1.487690000000000090e+01 -1.548000000000000043e+00 9.286810000000000898e-02 -3.791710000000000136e+00 -2.554230000000000445e+00 -3.052829999999984167e-02 -6.159449999999999648e+00 -6.786730000000000818e-01 -4.649030000000000662e-01 2.770140000000000491e+00 -1.022939999999999738e+00 -5.991249999999999076e+00 4.397229999999998995e+01 -1.091580000000000084e+01 7.447819999999999219e+00 2.662310000000000088e+01 9.046790000000001442e+00 4.059590000000000920e+00 -1.919869999999999521e+00 4.787890000000000157e+01 -5.194529999999999603e+01 2.873290000000000788e+00 5.074450000000000216e+01 1.277740000000000009e+01 1.190289999999999822e+02 5.376089999999999591e+00 -1.861609999999999943e+01 1.045539999999999914e+01 2.818400000000000105e+01 1.072940000000000005e+01 1.915919999999999845e+01 -3.297259999999999466e-15 -9.541660000000000512e-15 -1.000000000000000000e+01 -2.422209999999998786e-15 0.000000000000000000e+00 -1.000000000000000000e+01 -3.975689999999998936e-15 -3.180549999999999982e-15 1.192710000000000087e-14 1.998179999999999978e+01 8.718970000000000331e-01 2.396399999999999864e+00 2.400000000000000000e+01 -3.180549999999999982e-15 -3.180550000000000771e-15 2.000000000000000000e+01 -3.180549999999999982e-15 -1.272219999999999993e-14 -3.975689999999998936e-15 -3.180549999999999982e-15 1.192710000000000087e-14 2.000000000000000000e+01 -3.180549999999999193e-15 5.565969999999999999e-15 2.400000000000000000e+01 3.180550000000000771e-15 1.272219999999999677e-14 2.000000000000000000e+01 0.000000000000000000e+00 -6.361109999999998163e-15 -3.975689999999998936e-15 -3.180549999999999982e-15 1.192710000000000087e-14 1.997479999999999833e+01 -1.025649999999999951e+00 -2.819380000000000219e+00 2.400000000000000000e+01 -9.541660000000000512e-15 2.226389999999999955e-14 2.000000000000000000e+01 3.180549999999999587e-15 6.361109999999998952e-15 -3.975689999999998936e-15 -3.180549999999999982e-15 1.192710000000000087e-14 1.978150000000000119e+01 -3.009479999999999933e+00 -8.305149999999999366e+00 2.400000000000000000e+01 3.180549999999999982e-15 1.590279999999999485e-15 2.000000000000000000e+01 -3.180550000000000376e-15 3.180550000000000771e-15 4.684520000000000906e+00 -1.902939999999999898e+01 -4.905259999999999820e+01 -8.928450000000001552e+00 3.509619999999999607e+01 -1.150980000000000132e+02 3.422709999999999297e+01 -5.128619999999997958e+00 -2.733449999999999136e+01 -3.270459999999999923e+01 -1.479319999999999879e+01 -8.082280000000000797e+00 -2.818400000000000105e+01 1.072940000000000005e+01 -1.915919999999999845e+01 -5.069189999999999842e-15 1.272219999999999993e-14 1.000000000000000000e+01 3.688969999999998884e-15 1.113190000000000089e-14 1.000000000000000000e+01 -3.180549999999999982e-15 -1.590279999999999485e-15 0.000000000000000000e+00 -1.998179999999999978e+01 8.718970000000000331e-01 -2.396399999999999864e+00 -2.400000000000000000e+01 -3.180549999999999982e-15 6.361109999999999741e-15 -2.000000000000000000e+01 9.541660000000000512e-15 -7.056860000000000841e-15 -3.180549999999999982e-15 -1.590279999999999485e-15 0.000000000000000000e+00 -2.000000000000000000e+01 3.180550000000000771e-15 -3.180549999999999193e-15 -2.400000000000000000e+01 -6.361109999999999741e-15 1.908329999999999831e-14 -2.000000000000000000e+01 0.000000000000000000e+00 3.329640000000000202e-15 -3.180549999999999982e-15 -1.590279999999999485e-15 0.000000000000000000e+00 -1.997479999999999833e+01 -1.025649999999999951e+00 2.819380000000000219e+00 -2.400000000000000000e+01 -9.541660000000002090e-15 -3.180550000000000771e-15 -2.000000000000000000e+01 -6.361109999999999741e-15 1.888450000000000463e-14 -3.180549999999999982e-15 -1.590279999999999485e-15 0.000000000000000000e+00 -1.978150000000000119e+01 -3.009479999999999933e+00 8.305149999999999366e+00 -2.400000000000000000e+01 0.000000000000000000e+00 2.067359999999999735e-14 -2.000000000000000000e+01 -1.590280000000000116e-14 2.226389999999999955e-14
